<?xml version="1.0" standalone="no"?>
<!DOCTYPE svg PUBLIC "-//W3C//DTD SVG 20010904//EN"
 "http://www.w3.org/TR/2001/REC-SVG-20010904/DTD/svg10.dtd">
<svg version="1.0" xmlns="http://www.w3.org/2000/svg"
 width="1280.000000pt" height="1280.000000pt" viewBox="0 0 1280.000000 1280.000000"
 preserveAspectRatio="xMidYMid meet">
<metadata>
Created by potrace 1.11, written by Peter Selinger 2001-2013
</metadata>
<g transform="translate(0.000000,1280.000000) scale(0.100000,-0.100000)"
fill="#000000" stroke="none">
<path d="M8715 12196 c-16 -7 -63 -20 -103 -29 -41 -9 -106 -33 -145 -53 -93
-47 -101 -50 -172 -64 -33 -7 -69 -19 -80 -26 -11 -8 -26 -14 -33 -14 -8 0
-52 -26 -99 -57 -78 -54 -168 -108 -268 -164 -22 -12 -68 -45 -101 -74 -34
-29 -69 -59 -78 -66 -53 -45 -286 -281 -286 -289 0 -6 -13 -25 -29 -43 -96
-105 -158 -174 -205 -227 -27 -31 -129 -202 -149 -252 -16 -37 -34 -47 -53
-29 -25 24 -138 71 -214 89 -70 17 -128 21 -325 23 -349 5 -621 -28 -814 -98
-52 -18 -98 -30 -102 -26 -4 4 -32 55 -62 113 -30 58 -68 125 -84 150 -29 43
-91 149 -123 210 -17 32 -52 79 -93 124 -16 17 -39 47 -51 66 -13 19 -36 49
-52 66 -16 17 -38 43 -49 58 -25 36 -181 170 -269 231 -37 26 -96 58 -130 72
-33 14 -79 33 -101 43 -22 10 -62 21 -90 25 -27 4 -62 13 -76 21 -33 17 -190
44 -255 44 -75 0 -166 -19 -196 -41 -15 -11 -38 -24 -50 -29 -24 -10 -67 -36
-134 -81 -21 -15 -60 -49 -85 -75 -26 -27 -73 -65 -106 -84 -65 -39 -168 -144
-157 -162 4 -6 3 -8 -3 -5 -12 7 -44 -25 -66 -68 -52 -100 -74 -326 -56 -566
15 -197 20 -234 41 -348 19 -100 26 -120 59 -161 21 -26 50 -56 66 -67 32 -22
175 -69 249 -82 27 -5 69 -13 94 -19 25 -6 79 -19 120 -28 94 -20 221 -81 280
-133 25 -22 50 -41 56 -41 7 0 14 -9 17 -21 4 -16 -15 -43 -82 -117 -94 -104
-132 -156 -182 -248 -18 -33 -44 -76 -58 -98 -25 -37 -55 -85 -96 -155 -11
-18 -30 -45 -41 -60 -12 -15 -35 -53 -52 -86 -16 -33 -43 -85 -59 -115 -16
-30 -44 -91 -62 -135 -18 -44 -41 -95 -51 -112 -11 -18 -33 -65 -51 -105 -17
-40 -56 -124 -85 -186 -30 -62 -54 -115 -54 -117 0 -11 -58 -127 -92 -183
-114 -188 -196 -399 -232 -596 -5 -26 -9 -42 -47 -156 -11 -36 -28 -92 -36
-125 -28 -109 -55 -206 -83 -302 -7 -23 -10 -49 -7 -57 4 -9 3 -16 -2 -16 -5
0 -11 -12 -14 -27 -3 -16 -10 -46 -16 -68 -7 -22 -16 -60 -20 -85 -5 -25 -21
-90 -36 -145 -23 -88 -44 -222 -75 -483 -5 -41 -11 -81 -14 -90 -4 -17 -9 -64
-21 -227 -4 -44 -15 -141 -25 -216 -21 -144 -21 -318 -1 -554 6 -60 9 -119 9
-130 -1 -39 13 -171 24 -220 6 -27 12 -61 14 -75 2 -30 9 -67 35 -190 10 -52
30 -162 44 -245 24 -149 101 -418 142 -500 11 -22 24 -51 28 -65 13 -45 56
-134 83 -175 126 -186 395 -509 496 -594 10 -9 39 -33 63 -53 24 -21 48 -38
53 -38 5 0 15 -6 22 -12 35 -34 93 -70 203 -128 66 -34 122 -64 123 -65 2 -2
-27 -13 -65 -24 -83 -25 -133 -59 -194 -132 -63 -75 -100 -131 -148 -227 -55
-109 -92 -272 -69 -300 8 -9 8 -16 0 -24 -19 -19 -14 -55 7 -61 11 -2 45 1 77
9 32 7 61 11 65 8 5 -3 8 -25 7 -50 0 -38 4 -51 33 -80 57 -59 182 -86 263
-58 49 18 45 19 59 -13 54 -119 81 -136 211 -134 126 1 156 15 270 122 77 73
86 86 159 231 42 84 92 193 112 242 19 49 42 97 51 108 28 30 94 24 178 -17
40 -19 80 -35 88 -35 9 0 26 -8 39 -18 18 -14 39 -18 84 -16 68 2 175 -17 220
-39 24 -11 49 -13 130 -6 55 5 121 6 147 3 82 -10 762 -19 777 -10 3 2 67 -1
141 -6 74 -6 156 -10 181 -9 31 1 52 -3 63 -14 9 -9 16 -12 16 -6 0 7 38 10
108 10 59 -1 147 4 195 10 48 6 91 9 96 7 4 -3 27 1 52 8 40 12 189 29 249 27
120 -2 132 0 155 19 16 13 19 13 29 -3 6 -10 19 -28 29 -40 10 -11 20 -32 24
-46 20 -79 150 -222 244 -268 155 -76 217 -99 284 -108 27 -4 61 -13 75 -20
14 -7 52 -16 85 -20 33 -4 75 -11 93 -17 76 -23 236 -12 274 19 8 7 25 35 38
63 13 27 30 50 38 50 8 0 27 9 43 21 28 20 31 20 49 4 19 -18 40 -13 40 9 0 6
6 18 13 24 19 20 34 130 24 186 -6 34 -4 59 5 85 20 52 15 95 -20 189 -33 90
-73 150 -132 197 -86 68 -180 150 -180 155 0 3 16 12 36 19 40 15 86 43 156
96 25 19 50 35 56 35 5 0 29 13 53 30 24 16 52 30 62 30 9 0 17 7 17 15 0 8
13 24 29 36 16 12 58 57 92 101 34 44 70 85 78 91 23 17 92 104 129 162 17 28
36 55 41 61 4 6 12 21 16 35 4 13 25 46 46 74 21 28 49 71 62 96 38 70 61 109
115 194 45 70 73 118 119 200 27 48 61 123 73 160 7 22 23 56 34 75 42 69 61
120 81 225 8 39 23 111 33 160 11 50 22 144 26 210 3 66 10 149 15 185 21 137
26 246 26 595 0 298 -3 377 -18 460 -10 55 -25 143 -33 195 -44 269 -93 468
-127 509 -13 16 -31 55 -87 191 -17 41 -48 111 -70 155 -89 186 -290 735 -290
792 0 44 -81 268 -151 415 -38 81 -69 152 -69 157 0 13 -77 160 -112 216 -56
90 -168 326 -168 356 0 7 -6 20 -14 28 -8 9 -24 45 -36 80 -27 80 -88 198
-167 321 -34 52 -87 136 -119 185 -32 50 -61 92 -64 95 -3 3 -28 34 -55 70
-27 36 -52 66 -56 68 -22 9 -126 140 -120 150 4 6 25 14 46 17 22 4 63 12 90
20 28 7 86 18 130 25 44 6 98 15 120 20 22 5 58 12 80 15 21 3 53 14 70 24 18
10 49 24 71 31 79 26 131 97 189 255 10 28 22 55 25 60 9 13 39 116 80 275 17
69 42 152 55 185 12 33 28 94 35 135 7 41 16 99 21 129 5 30 9 73 9 95 0 22 5
66 12 98 19 93 -12 238 -77 365 -15 28 -34 60 -43 70 -10 10 -29 34 -44 53
-43 58 -148 164 -228 232 -124 105 -204 135 -275 104z"/>
</g>
</svg>
